<svg xmlns="http://www.w3.org/2000/svg" width="21.693" height="17.2" viewBox="0 0 21.693 17.2">
  <g id="身分証の無料素材1_1_" data-name="身分証の無料素材1 (1)" transform="translate(0 -53.028)">
    <path id="パス_41602" data-name="パス 41602" d="M21.5,56.806a2.5,2.5,0,0,0-2.3-1.527H14l-.154-.526a.528.528,0,0,0-.507-.379h-.526a.528.528,0,0,1-.528-.528v-.289a.528.528,0,0,0-.528-.528H9.874a.528.528,0,0,0-.528.528v.289a.528.528,0,0,1-.528.528H8.292a.528.528,0,0,0-.507.379l-.154.526H2.5a2.5,2.5,0,0,0-2.5,2.5v9.947a2.5,2.5,0,0,0,2.5,2.5H19.193a2.5,2.5,0,0,0,2.5-2.5V57.779A2.486,2.486,0,0,0,21.5,56.806Zm-1,10.921a1.3,1.3,0,0,1-1.3,1.3H2.5a1.3,1.3,0,0,1-1.3-1.3V57.779a1.3,1.3,0,0,1,1.3-1.3H7.28l-.095.323a.528.528,0,0,0,.507.677h6.248a.528.528,0,0,0,.507-.677l-.095-.323h4.842a1.3,1.3,0,0,1,1.3,1.3Z" transform="translate(0 0)" fill="#b60081"/>
    <path id="パス_41603" data-name="パス 41603" d="M85.778,201.9a1.9,1.9,0,1,0-1.9-1.9A1.9,1.9,0,0,0,85.778,201.9Z" transform="translate(-80.325 -138.922)" fill="#b60081"/>
    <path id="パス_41604" data-name="パス 41604" d="M74.851,293.761a.374.374,0,0,0-.28-.021,2.523,2.523,0,0,1-2.658,0,.374.374,0,0,0-.28.021,3.49,3.49,0,0,0-.824,1.539c-.209,1.251,1.128,1.7,2.432,1.7s2.641-.452,2.433-1.7A3.49,3.49,0,0,0,74.851,293.761Z" transform="translate(-67.789 -230.496)" fill="#b60081"/>
    <rect id="長方形_23297" data-name="長方形 23297" width="8.602" height="0.95" transform="translate(9.854 59.567)" fill="#b60081"/>
    <rect id="長方形_23298" data-name="長方形 23298" width="8.602" height="0.95" transform="translate(9.854 62.25)" fill="#b60081"/>
    <rect id="長方形_23299" data-name="長方形 23299" width="5.422" height="0.95" transform="translate(9.854 64.933)" fill="#b60081"/>
  </g>
</svg>
