<svg id="身分証の無料素材1_1_" data-name="身分証の無料素材1 (1)" xmlns="http://www.w3.org/2000/svg" width="25.735" height="20.405" viewBox="0 0 25.735 20.405">
  <g id="グループ_25907" data-name="グループ 25907">
    <path id="パス_41602" data-name="パス 41602" d="M25.5,57.51A2.965,2.965,0,0,0,22.769,55.7H16.608l-.183-.624a.626.626,0,0,0-.6-.45H15.2A.626.626,0,0,1,14.574,54v-.343a.627.627,0,0,0-.626-.627H11.714a.626.626,0,0,0-.626.627V54a.626.626,0,0,1-.627.626H9.838a.626.626,0,0,0-.6.45l-.183.624H2.967A2.966,2.966,0,0,0,0,58.665v11.8a2.967,2.967,0,0,0,2.967,2.967h19.8a2.967,2.967,0,0,0,2.966-2.967v-11.8A2.949,2.949,0,0,0,25.5,57.51ZM24.314,70.466a1.545,1.545,0,0,1-1.544,1.544H2.967a1.545,1.545,0,0,1-1.545-1.544v-11.8A1.543,1.543,0,0,1,2.967,57.12h5.67l-.113.384a.626.626,0,0,0,.6.8h7.412a.626.626,0,0,0,.6-.8l-.113-.384h5.744a1.543,1.543,0,0,1,1.544,1.545Z" transform="translate(0 -53.028)" fill="#fff"/>
    <path id="パス_41603" data-name="パス 41603" d="M86.132,202.6a2.254,2.254,0,1,0-2.253-2.253A2.253,2.253,0,0,0,86.132,202.6Z" transform="translate(-79.663 -190.804)" fill="#fff"/>
    <path id="パス_41604" data-name="パス 41604" d="M75.608,293.768a.444.444,0,0,0-.332-.024,2.993,2.993,0,0,1-3.153,0,.444.444,0,0,0-.332.024,4.141,4.141,0,0,0-.978,1.826c-.247,1.484,1.338,2.02,2.886,2.02s3.133-.536,2.886-2.02A4.141,4.141,0,0,0,75.608,293.768Z" transform="translate(-67.23 -281.624)" fill="#fff"/>
    <rect id="長方形_23297" data-name="長方形 23297" width="10.204" height="1.127" transform="translate(11.69 7.758)" fill="#fff"/>
    <rect id="長方形_23298" data-name="長方形 23298" width="10.204" height="1.128" transform="translate(11.69 10.94)" fill="#fff"/>
    <rect id="長方形_23299" data-name="長方形 23299" width="6.432" height="1.127" transform="translate(11.69 14.123)" fill="#fff"/>
  </g>
</svg>
