<svg xmlns="http://www.w3.org/2000/svg" width="24" height="24" viewBox="0 0 24 24">
  <path id="iconmonstr-map-5" d="M17.492,15.432a3.142,3.142,0,0,1-1.253-.259l.467-1.082a1.985,1.985,0,0,0,1.437.052l.388,1.112a3.108,3.108,0,0,1-1.039.177ZM6.57,15.41a3.169,3.169,0,0,1-1.093-.195l.407-1.1a1.992,1.992,0,0,0,1.44-.026l.447,1.09a3.143,3.143,0,0,1-1.2.236Zm8.67-.783-1.659-.945.583-1.024,1.66.945Zm-6.455-.02L8.18,13.6l1.639-.981.6,1.011-1.639.981ZM12.7,13.2a1.977,1.977,0,0,0-1.438-.034l-.4-1.108a3.162,3.162,0,0,1,2.292.056L12.7,13.2Zm7.327-.163A.968.968,0,1,0,21,14,.968.968,0,0,0,20.03,13.036Zm-16.061,0A.968.968,0,1,0,4.938,14,.968.968,0,0,0,3.969,13.036ZM22,12.2v6.683l-4,2.479V17H17v4.141l-4-2.885V15H11v3.255L7,21.14V17H6v4.365L2,18.886V5.592L6,8.071V12H7V8.073l4-2.886V10h2V5.187l1.577,1.138A5.66,5.66,0,0,1,14,3.8l.019-.345L12,2,6.455,6,0,2V20l6.455,4L12,20l5.545,4L24,20V8.382l-.039.047A7.333,7.333,0,0,0,22,12.2Zm2-8.4a4.005,4.005,0,0,0-8,0c0,3.121,3.188,3.451,4,8.2C20.812,7.252,24,6.922,24,3.8ZM18.5,4A1.5,1.5,0,1,1,20,5.5,1.5,1.5,0,0,1,18.5,4Zm-.548,8A6.573,6.573,0,0,0,17,9.666V12Z" transform="translate(0 0)" fill="#ddd"/>
</svg>
